<mxfile host="Electron" agent="Mozilla/5.0 (Windows NT 10.0; Win64; x64) AppleWebKit/537.36 (KHTML, like Gecko) draw.io/24.7.17 Chrome/128.0.6613.36 Electron/32.0.1 Safari/537.36" version="24.7.17">
  <diagram name="第 1 页" id="_4CxZkv3tlXnDcepIUyd">
    <mxGraphModel dx="767" dy="539" grid="0" gridSize="10" guides="1" tooltips="1" connect="1" arrows="1" fold="1" page="1" pageScale="1" pageWidth="1169" pageHeight="827" math="0" shadow="0">
      <root>
        <mxCell id="0" />
        <mxCell id="1" parent="0" />
        <mxCell id="GMdhNJSsaF1Dit_DGDsO-19" style="edgeStyle=orthogonalEdgeStyle;rounded=0;orthogonalLoop=1;jettySize=auto;html=1;exitX=0;exitY=0.5;exitDx=0;exitDy=0;entryX=0.5;entryY=0;entryDx=0;entryDy=0;" parent="1" source="hPFhRExuM6JJu2FMYha2-1" target="hPFhRExuM6JJu2FMYha2-10" edge="1">
          <mxGeometry relative="1" as="geometry" />
        </mxCell>
        <mxCell id="GMdhNJSsaF1Dit_DGDsO-20" style="edgeStyle=orthogonalEdgeStyle;rounded=0;orthogonalLoop=1;jettySize=auto;html=1;exitX=1;exitY=0.5;exitDx=0;exitDy=0;entryX=0.5;entryY=0;entryDx=0;entryDy=0;" parent="1" source="hPFhRExuM6JJu2FMYha2-1" target="hPFhRExuM6JJu2FMYha2-20" edge="1">
          <mxGeometry relative="1" as="geometry" />
        </mxCell>
        <mxCell id="GMdhNJSsaF1Dit_DGDsO-21" style="edgeStyle=orthogonalEdgeStyle;rounded=0;orthogonalLoop=1;jettySize=auto;html=1;exitX=0;exitY=1;exitDx=0;exitDy=0;entryX=0.5;entryY=0;entryDx=0;entryDy=0;" parent="1" source="hPFhRExuM6JJu2FMYha2-1" target="GMdhNJSsaF1Dit_DGDsO-9" edge="1">
          <mxGeometry relative="1" as="geometry" />
        </mxCell>
        <mxCell id="GMdhNJSsaF1Dit_DGDsO-22" style="edgeStyle=orthogonalEdgeStyle;rounded=0;orthogonalLoop=1;jettySize=auto;html=1;exitX=1;exitY=1;exitDx=0;exitDy=0;entryX=0.5;entryY=0;entryDx=0;entryDy=0;" parent="1" source="hPFhRExuM6JJu2FMYha2-1" target="hPFhRExuM6JJu2FMYha2-21" edge="1">
          <mxGeometry relative="1" as="geometry" />
        </mxCell>
        <mxCell id="hPFhRExuM6JJu2FMYha2-1" value="用户" style="rounded=0;whiteSpace=wrap;html=1;" parent="1" vertex="1">
          <mxGeometry x="286.5" y="157" width="120" height="40" as="geometry" />
        </mxCell>
        <mxCell id="hPFhRExuM6JJu2FMYha2-66" style="edgeStyle=orthogonalEdgeStyle;rounded=0;orthogonalLoop=1;jettySize=auto;html=1;exitX=0.5;exitY=1;exitDx=0;exitDy=0;entryX=0.5;entryY=0;entryDx=0;entryDy=0;" parent="1" source="hPFhRExuM6JJu2FMYha2-2" target="hPFhRExuM6JJu2FMYha2-1" edge="1">
          <mxGeometry relative="1" as="geometry" />
        </mxCell>
        <mxCell id="hPFhRExuM6JJu2FMYha2-2" value="注册/登录" style="rounded=0;whiteSpace=wrap;html=1;" parent="1" vertex="1">
          <mxGeometry x="303.5" y="87" width="90" height="40" as="geometry" />
        </mxCell>
        <mxCell id="GMdhNJSsaF1Dit_DGDsO-14" style="edgeStyle=orthogonalEdgeStyle;rounded=0;orthogonalLoop=1;jettySize=auto;html=1;exitX=0.25;exitY=1;exitDx=0;exitDy=0;entryX=0.5;entryY=0;entryDx=0;entryDy=0;" parent="1" source="hPFhRExuM6JJu2FMYha2-10" target="hPFhRExuM6JJu2FMYha2-15" edge="1">
          <mxGeometry relative="1" as="geometry" />
        </mxCell>
        <mxCell id="GMdhNJSsaF1Dit_DGDsO-15" style="edgeStyle=orthogonalEdgeStyle;rounded=0;orthogonalLoop=1;jettySize=auto;html=1;exitX=0.75;exitY=1;exitDx=0;exitDy=0;entryX=0.5;entryY=0;entryDx=0;entryDy=0;" parent="1" source="hPFhRExuM6JJu2FMYha2-10" target="hPFhRExuM6JJu2FMYha2-11" edge="1">
          <mxGeometry relative="1" as="geometry" />
        </mxCell>
        <mxCell id="GMdhNJSsaF1Dit_DGDsO-16" style="edgeStyle=orthogonalEdgeStyle;rounded=0;orthogonalLoop=1;jettySize=auto;html=1;exitX=1;exitY=1;exitDx=0;exitDy=0;entryX=0.5;entryY=0;entryDx=0;entryDy=0;" parent="1" source="hPFhRExuM6JJu2FMYha2-10" target="hPFhRExuM6JJu2FMYha2-18" edge="1">
          <mxGeometry relative="1" as="geometry" />
        </mxCell>
        <mxCell id="GMdhNJSsaF1Dit_DGDsO-17" style="edgeStyle=orthogonalEdgeStyle;rounded=0;orthogonalLoop=1;jettySize=auto;html=1;exitX=0;exitY=1;exitDx=0;exitDy=0;entryX=0.5;entryY=0;entryDx=0;entryDy=0;" parent="1" source="hPFhRExuM6JJu2FMYha2-10" target="hPFhRExuM6JJu2FMYha2-14" edge="1">
          <mxGeometry relative="1" as="geometry" />
        </mxCell>
        <mxCell id="hPFhRExuM6JJu2FMYha2-10" value="账户管理" style="rounded=0;whiteSpace=wrap;html=1;" parent="1" vertex="1">
          <mxGeometry x="133" y="258" width="93" height="36" as="geometry" />
        </mxCell>
        <mxCell id="hPFhRExuM6JJu2FMYha2-11" value="昵称" style="rounded=0;whiteSpace=wrap;html=1;" parent="1" vertex="1">
          <mxGeometry x="181" y="364" width="30" height="60" as="geometry" />
        </mxCell>
        <mxCell id="hPFhRExuM6JJu2FMYha2-14" value="账号" style="rounded=0;whiteSpace=wrap;html=1;" parent="1" vertex="1">
          <mxGeometry x="117" y="364" width="30" height="60" as="geometry" />
        </mxCell>
        <mxCell id="hPFhRExuM6JJu2FMYha2-15" value="密码" style="rounded=0;whiteSpace=wrap;html=1;" parent="1" vertex="1">
          <mxGeometry x="149" y="364" width="30" height="60" as="geometry" />
        </mxCell>
        <mxCell id="hPFhRExuM6JJu2FMYha2-18" value="头像" style="rounded=0;whiteSpace=wrap;html=1;" parent="1" vertex="1">
          <mxGeometry x="212" y="364" width="30" height="60" as="geometry" />
        </mxCell>
        <mxCell id="hPFhRExuM6JJu2FMYha2-55" style="edgeStyle=orthogonalEdgeStyle;rounded=0;orthogonalLoop=1;jettySize=auto;html=1;exitX=0;exitY=0.5;exitDx=0;exitDy=0;entryX=0.5;entryY=0;entryDx=0;entryDy=0;" parent="1" source="hPFhRExuM6JJu2FMYha2-20" target="hPFhRExuM6JJu2FMYha2-26" edge="1">
          <mxGeometry relative="1" as="geometry" />
        </mxCell>
        <mxCell id="hPFhRExuM6JJu2FMYha2-59" style="edgeStyle=orthogonalEdgeStyle;rounded=0;orthogonalLoop=1;jettySize=auto;html=1;exitX=0.5;exitY=1;exitDx=0;exitDy=0;entryX=0.5;entryY=0;entryDx=0;entryDy=0;" parent="1" source="hPFhRExuM6JJu2FMYha2-20" target="hPFhRExuM6JJu2FMYha2-28" edge="1">
          <mxGeometry relative="1" as="geometry" />
        </mxCell>
        <mxCell id="hPFhRExuM6JJu2FMYha2-61" style="edgeStyle=orthogonalEdgeStyle;rounded=0;orthogonalLoop=1;jettySize=auto;html=1;exitX=1;exitY=0.5;exitDx=0;exitDy=0;" parent="1" source="hPFhRExuM6JJu2FMYha2-20" target="hPFhRExuM6JJu2FMYha2-29" edge="1">
          <mxGeometry relative="1" as="geometry" />
        </mxCell>
        <mxCell id="GMdhNJSsaF1Dit_DGDsO-1" style="edgeStyle=orthogonalEdgeStyle;rounded=0;orthogonalLoop=1;jettySize=auto;html=1;exitX=0;exitY=1;exitDx=0;exitDy=0;entryX=0.5;entryY=0;entryDx=0;entryDy=0;" parent="1" source="hPFhRExuM6JJu2FMYha2-20" target="hPFhRExuM6JJu2FMYha2-27" edge="1">
          <mxGeometry relative="1" as="geometry" />
        </mxCell>
        <mxCell id="GMdhNJSsaF1Dit_DGDsO-2" style="edgeStyle=orthogonalEdgeStyle;rounded=0;orthogonalLoop=1;jettySize=auto;html=1;exitX=1;exitY=1;exitDx=0;exitDy=0;entryX=0.5;entryY=0;entryDx=0;entryDy=0;" parent="1" source="hPFhRExuM6JJu2FMYha2-20" target="hPFhRExuM6JJu2FMYha2-30" edge="1">
          <mxGeometry relative="1" as="geometry" />
        </mxCell>
        <mxCell id="hPFhRExuM6JJu2FMYha2-20" value="互动功能" style="rounded=0;whiteSpace=wrap;html=1;" parent="1" vertex="1">
          <mxGeometry x="540" y="255" width="70" height="40" as="geometry" />
        </mxCell>
        <mxCell id="hPFhRExuM6JJu2FMYha2-51" style="edgeStyle=orthogonalEdgeStyle;rounded=0;orthogonalLoop=1;jettySize=auto;html=1;exitX=0;exitY=0.5;exitDx=0;exitDy=0;entryX=0.5;entryY=0;entryDx=0;entryDy=0;" parent="1" source="hPFhRExuM6JJu2FMYha2-21" target="hPFhRExuM6JJu2FMYha2-22" edge="1">
          <mxGeometry relative="1" as="geometry" />
        </mxCell>
        <mxCell id="hPFhRExuM6JJu2FMYha2-52" style="edgeStyle=orthogonalEdgeStyle;rounded=0;orthogonalLoop=1;jettySize=auto;html=1;exitX=0.25;exitY=1;exitDx=0;exitDy=0;entryX=0.5;entryY=0;entryDx=0;entryDy=0;" parent="1" source="hPFhRExuM6JJu2FMYha2-21" target="hPFhRExuM6JJu2FMYha2-23" edge="1">
          <mxGeometry relative="1" as="geometry" />
        </mxCell>
        <mxCell id="hPFhRExuM6JJu2FMYha2-53" style="edgeStyle=orthogonalEdgeStyle;rounded=0;orthogonalLoop=1;jettySize=auto;html=1;exitX=0.75;exitY=1;exitDx=0;exitDy=0;entryX=0.5;entryY=0;entryDx=0;entryDy=0;" parent="1" source="hPFhRExuM6JJu2FMYha2-21" target="hPFhRExuM6JJu2FMYha2-24" edge="1">
          <mxGeometry relative="1" as="geometry" />
        </mxCell>
        <mxCell id="hPFhRExuM6JJu2FMYha2-54" style="edgeStyle=orthogonalEdgeStyle;rounded=0;orthogonalLoop=1;jettySize=auto;html=1;exitX=1;exitY=0.5;exitDx=0;exitDy=0;entryX=0.5;entryY=0;entryDx=0;entryDy=0;" parent="1" source="hPFhRExuM6JJu2FMYha2-21" target="hPFhRExuM6JJu2FMYha2-25" edge="1">
          <mxGeometry relative="1" as="geometry" />
        </mxCell>
        <mxCell id="hPFhRExuM6JJu2FMYha2-21" value="文档编辑" style="rounded=0;whiteSpace=wrap;html=1;" parent="1" vertex="1">
          <mxGeometry x="370.5" y="255" width="72.5" height="40" as="geometry" />
        </mxCell>
        <mxCell id="hPFhRExuM6JJu2FMYha2-22" value="文本" style="rounded=0;whiteSpace=wrap;html=1;" parent="1" vertex="1">
          <mxGeometry x="332" y="365" width="30" height="60" as="geometry" />
        </mxCell>
        <mxCell id="hPFhRExuM6JJu2FMYha2-23" value="图片" style="rounded=0;whiteSpace=wrap;html=1;" parent="1" vertex="1">
          <mxGeometry x="373" y="364" width="30" height="60" as="geometry" />
        </mxCell>
        <mxCell id="hPFhRExuM6JJu2FMYha2-24" value="音频" style="rounded=0;whiteSpace=wrap;html=1;" parent="1" vertex="1">
          <mxGeometry x="410" y="365" width="30" height="60" as="geometry" />
        </mxCell>
        <mxCell id="hPFhRExuM6JJu2FMYha2-25" value="视频" style="rounded=0;whiteSpace=wrap;html=1;" parent="1" vertex="1">
          <mxGeometry x="452" y="364" width="30" height="60" as="geometry" />
        </mxCell>
        <mxCell id="hPFhRExuM6JJu2FMYha2-26" value="点赞" style="rounded=0;whiteSpace=wrap;html=1;" parent="1" vertex="1">
          <mxGeometry x="488" y="365" width="30" height="60" as="geometry" />
        </mxCell>
        <mxCell id="hPFhRExuM6JJu2FMYha2-27" value="关注" style="rounded=0;whiteSpace=wrap;html=1;" parent="1" vertex="1">
          <mxGeometry x="524" y="364" width="30" height="60" as="geometry" />
        </mxCell>
        <mxCell id="hPFhRExuM6JJu2FMYha2-28" value="收藏" style="rounded=0;whiteSpace=wrap;html=1;" parent="1" vertex="1">
          <mxGeometry x="560" y="365" width="30" height="60" as="geometry" />
        </mxCell>
        <mxCell id="hPFhRExuM6JJu2FMYha2-29" value="分享" style="rounded=0;whiteSpace=wrap;html=1;" parent="1" vertex="1">
          <mxGeometry x="630" y="365" width="30" height="60" as="geometry" />
        </mxCell>
        <mxCell id="hPFhRExuM6JJu2FMYha2-30" value="评论" style="rounded=0;whiteSpace=wrap;html=1;" parent="1" vertex="1">
          <mxGeometry x="595" y="365" width="30" height="60" as="geometry" />
        </mxCell>
        <mxCell id="hPFhRExuM6JJu2FMYha2-82" style="edgeStyle=orthogonalEdgeStyle;rounded=0;orthogonalLoop=1;jettySize=auto;html=1;" parent="1" source="hPFhRExuM6JJu2FMYha2-67" target="hPFhRExuM6JJu2FMYha2-74" edge="1">
          <mxGeometry relative="1" as="geometry" />
        </mxCell>
        <mxCell id="hPFhRExuM6JJu2FMYha2-84" style="edgeStyle=orthogonalEdgeStyle;rounded=0;orthogonalLoop=1;jettySize=auto;html=1;exitX=0.5;exitY=1;exitDx=0;exitDy=0;entryX=0.5;entryY=0;entryDx=0;entryDy=0;" parent="1" source="hPFhRExuM6JJu2FMYha2-67" target="hPFhRExuM6JJu2FMYha2-79" edge="1">
          <mxGeometry relative="1" as="geometry" />
        </mxCell>
        <mxCell id="hPFhRExuM6JJu2FMYha2-85" style="edgeStyle=orthogonalEdgeStyle;rounded=0;orthogonalLoop=1;jettySize=auto;html=1;exitX=1;exitY=0.5;exitDx=0;exitDy=0;entryX=0.5;entryY=0;entryDx=0;entryDy=0;" parent="1" source="hPFhRExuM6JJu2FMYha2-67" target="hPFhRExuM6JJu2FMYha2-69" edge="1">
          <mxGeometry relative="1" as="geometry" />
        </mxCell>
        <mxCell id="hPFhRExuM6JJu2FMYha2-67" value="后台功能" style="rounded=0;whiteSpace=wrap;html=1;" parent="1" vertex="1">
          <mxGeometry x="767" y="261" width="120" height="60" as="geometry" />
        </mxCell>
        <mxCell id="hPFhRExuM6JJu2FMYha2-69" value="分类管理" style="rounded=0;whiteSpace=wrap;html=1;" parent="1" vertex="1">
          <mxGeometry x="899.75" y="351" width="67.5" height="40" as="geometry" />
        </mxCell>
        <mxCell id="hPFhRExuM6JJu2FMYha2-74" value="用户管理" style="rounded=0;whiteSpace=wrap;html=1;" parent="1" vertex="1">
          <mxGeometry x="695" y="351" width="66" height="40" as="geometry" />
        </mxCell>
        <mxCell id="hPFhRExuM6JJu2FMYha2-79" value="发布审核" style="rounded=0;whiteSpace=wrap;html=1;" parent="1" vertex="1">
          <mxGeometry x="797.5" y="351" width="66" height="40" as="geometry" />
        </mxCell>
        <mxCell id="GMdhNJSsaF1Dit_DGDsO-8" style="edgeStyle=orthogonalEdgeStyle;rounded=0;orthogonalLoop=1;jettySize=auto;html=1;exitX=0.5;exitY=1;exitDx=0;exitDy=0;entryX=0.5;entryY=0;entryDx=0;entryDy=0;" parent="1" source="JptADEX7R3chZZwokIpG-5" target="hPFhRExuM6JJu2FMYha2-67" edge="1">
          <mxGeometry relative="1" as="geometry" />
        </mxCell>
        <mxCell id="JptADEX7R3chZZwokIpG-5" value="管理员" style="rounded=0;whiteSpace=wrap;html=1;" parent="1" vertex="1">
          <mxGeometry x="770" y="183" width="120" height="40" as="geometry" />
        </mxCell>
        <mxCell id="GMdhNJSsaF1Dit_DGDsO-12" style="edgeStyle=orthogonalEdgeStyle;rounded=0;orthogonalLoop=1;jettySize=auto;html=1;exitX=0.25;exitY=1;exitDx=0;exitDy=0;entryX=0.5;entryY=0;entryDx=0;entryDy=0;" parent="1" source="GMdhNJSsaF1Dit_DGDsO-9" target="GMdhNJSsaF1Dit_DGDsO-10" edge="1">
          <mxGeometry relative="1" as="geometry" />
        </mxCell>
        <mxCell id="GMdhNJSsaF1Dit_DGDsO-13" style="edgeStyle=orthogonalEdgeStyle;rounded=0;orthogonalLoop=1;jettySize=auto;html=1;exitX=0.75;exitY=1;exitDx=0;exitDy=0;entryX=0.5;entryY=0;entryDx=0;entryDy=0;" parent="1" source="GMdhNJSsaF1Dit_DGDsO-9" target="GMdhNJSsaF1Dit_DGDsO-11" edge="1">
          <mxGeometry relative="1" as="geometry" />
        </mxCell>
        <mxCell id="GMdhNJSsaF1Dit_DGDsO-9" value="文件管理" style="rounded=0;whiteSpace=wrap;html=1;" parent="1" vertex="1">
          <mxGeometry x="248" y="256" width="76" height="36" as="geometry" />
        </mxCell>
        <mxCell id="GMdhNJSsaF1Dit_DGDsO-10" value="上传" style="rounded=0;whiteSpace=wrap;html=1;" parent="1" vertex="1">
          <mxGeometry x="252.5" y="365" width="30" height="60" as="geometry" />
        </mxCell>
        <mxCell id="GMdhNJSsaF1Dit_DGDsO-11" value="下载" style="rounded=0;whiteSpace=wrap;html=1;" parent="1" vertex="1">
          <mxGeometry x="290.5" y="365" width="30" height="60" as="geometry" />
        </mxCell>
        <mxCell id="WemuPMMH1II-5u58ZSkd-1" value="用户功能模块" style="rounded=0;whiteSpace=wrap;html=1;" vertex="1" parent="1">
          <mxGeometry x="200.5" y="477" width="120" height="40" as="geometry" />
        </mxCell>
        <mxCell id="WemuPMMH1II-5u58ZSkd-2" value="管理员功能模块" style="rounded=0;whiteSpace=wrap;html=1;" vertex="1" parent="1">
          <mxGeometry x="641" y="477" width="120" height="40" as="geometry" />
        </mxCell>
        <mxCell id="WemuPMMH1II-5u58ZSkd-3" value="登&lt;div&gt;录&lt;/div&gt;&lt;div&gt;注&lt;/div&gt;&lt;div&gt;册&lt;/div&gt;" style="rounded=0;whiteSpace=wrap;html=1;" vertex="1" parent="1">
          <mxGeometry x="62.5" y="558" width="56" height="99" as="geometry" />
        </mxCell>
        <mxCell id="WemuPMMH1II-5u58ZSkd-4" value="文&lt;div&gt;件&lt;/div&gt;&lt;div&gt;上&lt;/div&gt;&lt;div&gt;传&lt;/div&gt;&lt;div&gt;下&lt;/div&gt;&lt;div&gt;载&lt;/div&gt;" style="rounded=0;whiteSpace=wrap;html=1;" vertex="1" parent="1">
          <mxGeometry x="142.5" y="559" width="56" height="99" as="geometry" />
        </mxCell>
        <mxCell id="WemuPMMH1II-5u58ZSkd-5" value="富&lt;div&gt;文&lt;/div&gt;&lt;div&gt;本&lt;/div&gt;&lt;div&gt;编&lt;/div&gt;&lt;div&gt;辑&lt;/div&gt;" style="rounded=0;whiteSpace=wrap;html=1;" vertex="1" parent="1">
          <mxGeometry x="231.75" y="560" width="57.75" height="102" as="geometry" />
        </mxCell>
        <mxCell id="WemuPMMH1II-5u58ZSkd-6" value="个&lt;div&gt;人&lt;/div&gt;&lt;div&gt;文&lt;div&gt;件&lt;/div&gt;&lt;div&gt;管&lt;/div&gt;&lt;div&gt;理&lt;/div&gt;&lt;/div&gt;" style="rounded=0;whiteSpace=wrap;html=1;" vertex="1" parent="1">
          <mxGeometry x="320.5" y="560.5" width="57.75" height="102" as="geometry" />
        </mxCell>
        <mxCell id="WemuPMMH1II-5u58ZSkd-7" value="用&lt;div&gt;户&lt;/div&gt;&lt;div&gt;互&lt;/div&gt;&lt;div&gt;动&lt;/div&gt;&lt;div&gt;功&lt;/div&gt;&lt;div&gt;能&lt;/div&gt;" style="rounded=0;whiteSpace=wrap;html=1;" vertex="1" parent="1">
          <mxGeometry x="400" y="560" width="57.75" height="102" as="geometry" />
        </mxCell>
        <mxCell id="WemuPMMH1II-5u58ZSkd-8" value="用&lt;div&gt;户&lt;/div&gt;&lt;div&gt;信&lt;/div&gt;&lt;div&gt;息&lt;/div&gt;&lt;div&gt;管&lt;/div&gt;&lt;div&gt;理&lt;/div&gt;" style="rounded=0;whiteSpace=wrap;html=1;" vertex="1" parent="1">
          <mxGeometry x="624" y="560" width="57.75" height="102" as="geometry" />
        </mxCell>
        <mxCell id="WemuPMMH1II-5u58ZSkd-9" value="登&lt;div&gt;录&lt;/div&gt;&lt;div&gt;注&lt;/div&gt;&lt;div&gt;册&lt;/div&gt;" style="rounded=0;whiteSpace=wrap;html=1;" vertex="1" parent="1">
          <mxGeometry x="542" y="560" width="57.75" height="102" as="geometry" />
        </mxCell>
        <mxCell id="WemuPMMH1II-5u58ZSkd-10" value="发&lt;div&gt;布&lt;/div&gt;&lt;div&gt;审&lt;/div&gt;&lt;div&gt;核&lt;/div&gt;&lt;div&gt;管&lt;/div&gt;&lt;div&gt;理&lt;/div&gt;" style="rounded=0;whiteSpace=wrap;html=1;" vertex="1" parent="1">
          <mxGeometry x="709" y="559" width="57.75" height="102" as="geometry" />
        </mxCell>
        <mxCell id="WemuPMMH1II-5u58ZSkd-11" value="内&lt;div&gt;容&lt;/div&gt;&lt;div&gt;分&lt;/div&gt;&lt;div&gt;类&lt;/div&gt;&lt;div&gt;管&lt;/div&gt;&lt;div&gt;理&lt;/div&gt;" style="rounded=0;whiteSpace=wrap;html=1;" vertex="1" parent="1">
          <mxGeometry x="800" y="559" width="57.75" height="102" as="geometry" />
        </mxCell>
        <mxCell id="WemuPMMH1II-5u58ZSkd-12" value="" style="endArrow=none;html=1;rounded=0;" edge="1" parent="1">
          <mxGeometry width="50" height="50" relative="1" as="geometry">
            <mxPoint x="89.78999999999999" y="558" as="sourcePoint" />
            <mxPoint x="90" y="531" as="targetPoint" />
          </mxGeometry>
        </mxCell>
        <mxCell id="WemuPMMH1II-5u58ZSkd-14" value="" style="endArrow=none;html=1;rounded=0;" edge="1" parent="1">
          <mxGeometry width="50" height="50" relative="1" as="geometry">
            <mxPoint x="170.26" y="558" as="sourcePoint" />
            <mxPoint x="170.47" y="531" as="targetPoint" />
          </mxGeometry>
        </mxCell>
        <mxCell id="WemuPMMH1II-5u58ZSkd-15" value="" style="endArrow=none;html=1;rounded=0;entryX=0.5;entryY=1;entryDx=0;entryDy=0;" edge="1" parent="1" target="WemuPMMH1II-5u58ZSkd-1">
          <mxGeometry width="50" height="50" relative="1" as="geometry">
            <mxPoint x="260.38" y="559.5" as="sourcePoint" />
            <mxPoint x="260.59000000000003" y="532.5" as="targetPoint" />
          </mxGeometry>
        </mxCell>
        <mxCell id="WemuPMMH1II-5u58ZSkd-16" value="" style="endArrow=none;html=1;rounded=0;" edge="1" parent="1">
          <mxGeometry width="50" height="50" relative="1" as="geometry">
            <mxPoint x="349.13" y="559.5" as="sourcePoint" />
            <mxPoint x="349.34000000000003" y="532.5" as="targetPoint" />
          </mxGeometry>
        </mxCell>
        <mxCell id="WemuPMMH1II-5u58ZSkd-17" value="" style="endArrow=none;html=1;rounded=0;" edge="1" parent="1">
          <mxGeometry width="50" height="50" relative="1" as="geometry">
            <mxPoint x="428.63" y="559.5" as="sourcePoint" />
            <mxPoint x="428.84000000000003" y="532.5" as="targetPoint" />
          </mxGeometry>
        </mxCell>
        <mxCell id="WemuPMMH1II-5u58ZSkd-18" value="" style="endArrow=none;html=1;rounded=0;" edge="1" parent="1">
          <mxGeometry width="50" height="50" relative="1" as="geometry">
            <mxPoint x="429" y="532" as="sourcePoint" />
            <mxPoint x="90" y="531" as="targetPoint" />
          </mxGeometry>
        </mxCell>
        <mxCell id="WemuPMMH1II-5u58ZSkd-19" value="" style="endArrow=none;html=1;rounded=0;" edge="1" parent="1">
          <mxGeometry width="50" height="50" relative="1" as="geometry">
            <mxPoint x="570.71" y="560" as="sourcePoint" />
            <mxPoint x="570.9200000000001" y="533" as="targetPoint" />
          </mxGeometry>
        </mxCell>
        <mxCell id="WemuPMMH1II-5u58ZSkd-20" value="" style="endArrow=none;html=1;rounded=0;" edge="1" parent="1">
          <mxGeometry width="50" height="50" relative="1" as="geometry">
            <mxPoint x="652.71" y="560" as="sourcePoint" />
            <mxPoint x="652.9200000000001" y="533" as="targetPoint" />
          </mxGeometry>
        </mxCell>
        <mxCell id="WemuPMMH1II-5u58ZSkd-21" value="" style="endArrow=none;html=1;rounded=0;" edge="1" parent="1">
          <mxGeometry width="50" height="50" relative="1" as="geometry">
            <mxPoint x="737.71" y="559" as="sourcePoint" />
            <mxPoint x="737.9200000000001" y="532" as="targetPoint" />
          </mxGeometry>
        </mxCell>
        <mxCell id="WemuPMMH1II-5u58ZSkd-22" value="" style="endArrow=none;html=1;rounded=0;" edge="1" parent="1">
          <mxGeometry width="50" height="50" relative="1" as="geometry">
            <mxPoint x="828.71" y="559" as="sourcePoint" />
            <mxPoint x="828.9200000000001" y="532" as="targetPoint" />
          </mxGeometry>
        </mxCell>
        <mxCell id="WemuPMMH1II-5u58ZSkd-23" value="" style="endArrow=none;html=1;rounded=0;" edge="1" parent="1">
          <mxGeometry width="50" height="50" relative="1" as="geometry">
            <mxPoint x="829" y="532" as="sourcePoint" />
            <mxPoint x="571" y="533" as="targetPoint" />
          </mxGeometry>
        </mxCell>
        <mxCell id="WemuPMMH1II-5u58ZSkd-24" value="" style="endArrow=none;html=1;rounded=0;entryX=0.5;entryY=1;entryDx=0;entryDy=0;" edge="1" parent="1" target="WemuPMMH1II-5u58ZSkd-2">
          <mxGeometry width="50" height="50" relative="1" as="geometry">
            <mxPoint x="701" y="532" as="sourcePoint" />
            <mxPoint x="662.9200000000001" y="543" as="targetPoint" />
          </mxGeometry>
        </mxCell>
      </root>
    </mxGraphModel>
  </diagram>
</mxfile>
